<?xml version="1.0" encoding="UTF-8"?>
<svg id="Layer_1" data-name="Layer 1" xmlns="http://www.w3.org/2000/svg" viewBox="0 0 410.93 409.07">
  <defs>
    <style>
      .cls-1, .cls-2 {
        fill: #231f20;
      }

      .cls-3, .cls-4 {
        fill: #fff;
      }

      .cls-5 {
        stroke: #231f20;
      }

      .cls-5, .cls-4, .cls-6, .cls-2 {
        stroke-miterlimit: 10;
      }

      .cls-4, .cls-6, .cls-2 {
        stroke: #fff;
        stroke-width: 4px;
      }

      .cls-6 {
        fill: none;
      }
    </style>
  </defs>
  <rect class="cls-5" x=".5" y=".5" width="409.93" height="408.07"/>
  <g>
    <g>
      <rect class="cls-1" x="159.81" y="156.65" width="91.61" height="95.77"/>
      <path class="cls-3" d="M249.42,158.65v91.77h-87.61v-91.77h87.61M253.42,154.65h-95.61v99.77h95.61v-99.77h0Z"/>
    </g>
    <ellipse class="cls-3" cx="253.27" cy="204.53" rx="47.81" ry="49.88"/>
    <g>
      <path d="M157.66,252.42c-25.26,0-45.81-21.48-45.81-47.88s20.55-47.88,45.81-47.88,45.81,21.48,45.81,47.88-20.55,47.88-45.81,47.88Z"/>
      <path class="cls-3" d="M157.66,158.65c24.16,0,43.81,20.58,43.81,45.88s-19.65,45.88-43.81,45.88-43.81-20.58-43.81-45.88,19.65-45.88,43.81-45.88M157.66,154.65c-26.4,0-47.81,22.33-47.81,49.88s21.4,49.88,47.81,49.88,47.81-22.33,47.81-49.88-21.4-49.88-47.81-49.88h0Z"/>
    </g>
    <line class="cls-6" x1="205.46" y1="171.28" x2="205.46" y2="237.79"/>
    <ellipse class="cls-4" cx="205.46" cy="171.28" rx="2.3" ry="2.4"/>
    <ellipse class="cls-2" cx="205.46" cy="237.79" rx="2.3" ry="2.4"/>
    <rect x="157.94" y="198.31" width="95.36" height="12.44" rx="6.22" ry="6.22"/>
    <path class="cls-3" d="M205.62,198.31h-41.46c-3.43,0-6.22,2.78-6.22,6.22h0c0,3.43,2.78,6.22,6.22,6.22h41.46v-12.44Z"/>
  </g>
</svg>