<?xml version="1.0" encoding="UTF-8"?>
<svg id="Layer_1" data-name="Layer 1" xmlns="http://www.w3.org/2000/svg" viewBox="0 0 1089 1089">
  <defs>
    <style>
      .cls-1, .cls-2 {
        fill: #fff;
      }

      .cls-1, .cls-3 {
        stroke: #fff;
        stroke-miterlimit: 10;
      }

      .cls-4 {
        fill: #e02f3d;
      }
    </style>
  </defs>
  <rect class="cls-3" x=".5" y=".5" width="1088" height="1088"/>
  <g>
    <g>
      <g>
        <path class="cls-3" d="M926.34,420.74v234.71c-15.08,6.68-30.12,13.35-45.2,20.03-21.08-5.63-42.13-11.28-63.21-16.91l-60.05-128.95-62.14,128.91c-19.68,5.65-39.38,11.3-59.06,16.95l-47.25-20.07v-234.67h100.66v32.87c4.56-7.6,8.53-15.96,12.33-24.24,1.21-2.63,3.14-4.79,5.48-6.29,2.34-1.5,5.12-2.34,8.01-2.34h83.24c5.67,0,10.89,3.14,13.54,8.18,0,.02.02.02.02.04l15.02,28.76v-36.98h98.61Z"/>
        <path class="cls-1" d="M707.91,423.08c-2.34,1.5-4.27,3.66-5.48,6.29-3.8,8.28-7.77,16.64-12.33,24.24v-32.87h-6.08l-.04,4.11-.49,41.66-38.58,77.49v-123.26h-8.22v156.13l79.17-156.05s.04-.06.06-.08c-2.9,0-5.67.84-8.01,2.34ZM872.93,420.74v123.26l-38.56-73.4c-.06-16.62-.1-33.24-.16-49.86h-6.47v36.98l-15.02-28.76s-.02-.02-.02-.04c-2.65-5.03-7.87-8.18-13.54-8.18,20.34,39.55,40.76,79.05,61.3,118.51,6.88,13.23,13.78,26.46,20.69,39.67v-158.18h-8.22ZM921.86,420.74l.39,224.97c-13.93,5.94-27.84,11.85-41.74,17.79l-109.27-242.76h-8.22l109.91,244.44c-17.03-5.22-34.06-10.44-51.09-15.65l-83.47-183.6c-34.1,66.33-68.22,132.67-102.33,199-14.17-5.38-28.33-10.79-42.5-16.17-.04-74.63-.06-149.29-.1-223.92v-4.11h-5.77v233.91l1.77.76,47.25,20.07c19.68-5.65,39.38-11.3,59.06-16.95l62.14-128.91,60.05,128.95c21.08,5.63,42.13,11.28,63.21,16.91,15.08-6.68,30.12-13.35,45.2-20.03,1.4-.62,2.81-1.25,4.21-1.87v-232.84h-8.69ZM691.97,649.61c-15.7,4.52-31.37,9.02-47.06,13.54l92.46-178.73c5.36,11.13,10.7,22.27,16.07,33.4-20.48,43.92-40.98,87.86-61.47,131.78Z"/>
      </g>
      <g>
        <rect class="cls-1" x="587.67" y="420.74" width="102.43" height="8.22"/>
        <path class="cls-1" d="M798.98,428.96h-84.23c-2.27,0-4.11-1.84-4.11-4.11s1.84-4.11,4.11-4.11h84.23c2.27,0,4.11,1.84,4.11,4.11s-1.84,4.11-4.11,4.11Z"/>
        <rect class="cls-1" x="827.74" y="420.74" width="102.82" height="8.22"/>
      </g>
    </g>
    <rect class="cls-1" x="710.64" y="426.9" width="93.47" height="2.05"/>
  </g>
  <g>
    <ellipse class="cls-4" cx="550.56" cy="548.19" rx="120.03" ry="121.88"/>
    <path class="cls-2" d="M550.56,673.82c-68.25,0-123.78-56.35-123.78-125.62s55.53-125.62,123.78-125.62,123.78,56.35,123.78,125.62-55.53,125.62-123.78,125.62ZM550.56,430.07c-64.12,0-116.29,52.99-116.29,118.13s52.17,118.13,116.29,118.13,116.29-52.99,116.29-118.13-52.16-118.13-116.29-118.13Z"/>
  </g>
  <g>
    <g>
      <g>
        <path class="cls-3" d="M499.39,420.74v234.71c-15.08,6.68-30.12,13.35-45.2,20.03-21.08-5.63-42.13-11.28-63.21-16.91l-60.05-128.95-62.14,128.91c-19.68,5.65-39.38,11.3-59.06,16.95l-47.25-20.07v-234.67h100.66v32.87c4.56-7.6,8.53-15.96,12.33-24.24,1.21-2.63,3.14-4.79,5.48-6.29,2.34-1.5,5.12-2.34,8.01-2.34h83.24c5.67,0,10.89,3.14,13.54,8.18,0,.02.02.02.02.04l15.02,28.76v-36.98h98.61Z"/>
        <path class="cls-1" d="M280.95,423.08c-2.34,1.5-4.27,3.66-5.48,6.29-3.8,8.28-7.77,16.64-12.33,24.24v-32.87h-6.08l-.04,4.11-.49,41.66-38.58,77.49v-123.26h-8.22v156.13l79.17-156.05s.04-.06.06-.08c-2.9,0-5.67.84-8.01,2.34ZM445.97,420.74v123.26l-38.56-73.4c-.06-16.62-.1-33.24-.16-49.86h-6.47v36.98l-15.02-28.76s-.02-.02-.02-.04c-2.65-5.03-7.87-8.18-13.54-8.18,20.34,39.55,40.76,79.05,61.3,118.51,6.88,13.23,13.78,26.46,20.69,39.67v-158.18h-8.22ZM494.91,420.74l.39,224.97c-13.93,5.94-27.84,11.85-41.74,17.79l-109.27-242.76h-8.22l109.91,244.44c-17.03-5.22-34.06-10.44-51.09-15.65l-83.47-183.6c-34.1,66.33-68.22,132.67-102.33,199-14.17-5.38-28.33-10.79-42.5-16.17-.04-74.63-.06-149.29-.1-223.92v-4.11h-5.77v233.91l1.77.76,47.25,20.07c19.68-5.65,39.38-11.3,59.06-16.95l62.14-128.91,60.05,128.95c21.08,5.63,42.13,11.28,63.21,16.91,15.08-6.68,30.12-13.35,45.2-20.03,1.4-.62,2.81-1.25,4.21-1.87v-232.84h-8.69ZM265.01,649.61c-15.7,4.52-31.37,9.02-47.06,13.54l92.46-178.73c5.36,11.13,10.7,22.27,16.07,33.4-20.48,43.92-40.98,87.86-61.47,131.78Z"/>
      </g>
      <g>
        <rect class="cls-1" x="160.71" y="420.74" width="102.43" height="8.22"/>
        <path class="cls-1" d="M372.02,428.96h-84.23c-2.27,0-4.11-1.84-4.11-4.11s1.84-4.11,4.11-4.11h84.23c2.27,0,4.11,1.84,4.11,4.11s-1.84,4.11-4.11,4.11Z"/>
        <rect class="cls-1" x="400.78" y="420.74" width="102.82" height="8.22"/>
      </g>
    </g>
    <rect class="cls-1" x="283.68" y="426.9" width="93.47" height="2.05"/>
  </g>
</svg>