<?xml version="1.0" encoding="UTF-8"?>
<svg id="Layer_1" data-name="Layer 1" xmlns="http://www.w3.org/2000/svg" viewBox="0 0 784.51 786.15">
  <defs>
    <style>
      .cls-1 {
        fill: #4b4da0;
      }

      .cls-1, .cls-2 {
        stroke-width: 0px;
      }

      .cls-3 {
        fill: #231f20;
        stroke: #231f20;
        stroke-miterlimit: 10;
        stroke-width: 8px;
      }

      .cls-2 {
        fill: #fff;
      }
    </style>
  </defs>
  <g>
    <path class="cls-3" d="M296.56,59.25L18.97,540.06c-42.53,73.66,10.63,165.74,95.69,165.74h555.19c85.06,0,138.22-92.08,95.69-165.74L487.94,59.25c-42.53-73.66-148.85-73.66-191.38,0Z"/>
    <g>
      <path class="cls-1" d="M418.34,478.46c3.55,60,12.24,118.81,31.29,164.45,21.96,52.6,61.15,96.67,102.11,111.73v28.98h-293.42v-28.98c40.94-15.06,80.15-59.13,102.11-111.73,19.05-45.63,27.74-104.45,31.29-164.45h26.63Z"/>
      <path class="cls-2" d="M415.84,478.46c1.42,23.95,3.65,47.87,7.19,71.6,3.3,22.14,7.76,44.18,14.25,65.62,6.16,20.33,14.35,40,25.02,58.38,10.38,17.87,22.95,34.65,37.72,49.13,13.08,12.83,28.13,24.15,45.03,31.44,1.99.86,3.99,1.67,6.02,2.42l-1.84-2.41v28.98l2.5-2.5h-281.52c-3.79,0-7.64-.2-11.42,0-.16,0-.32,0-.48,0l2.5,2.5v-28.98l-1.84,2.41c17.08-6.32,32.36-16.71,45.78-28.9,15.15-13.76,28.08-29.97,38.9-47.31,11.26-18.05,20.11-37.5,26.75-57.7,6.92-21.03,11.7-42.73,15.27-64.56,3.86-23.55,6.33-47.33,7.95-71.13.2-3,.39-5.99.57-8.99l-2.5,2.5h26.63c3.22,0,3.22-5,0-5h-26.63c-1.41,0-2.42,1.15-2.5,2.5-1.4,23.5-3.54,46.98-7.01,70.27-3.25,21.81-7.62,43.51-13.96,64.64-5.98,19.95-13.91,39.2-24.3,57.27-10.13,17.6-22.35,34.05-36.79,48.35-12.78,12.65-27.41,23.73-43.93,31-1.83.81-3.69,1.54-5.57,2.24-1.05.39-1.84,1.24-1.84,2.41v28.98c0,1.35,1.15,2.5,2.5,2.5h281.52c3.8,0,7.62.08,11.42,0,.16,0,.32,0,.48,0,1.35,0,2.5-1.15,2.5-2.5v-28.98c0-1.18-.79-2.02-1.84-2.41-16.52-6.11-31.35-16.38-44.27-28.24-14.8-13.58-27.42-29.47-37.96-46.54-10.96-17.74-19.57-36.77-26.02-56.59s-11.44-42.1-14.96-63.6c-3.79-23.11-6.18-46.44-7.77-69.8-.2-3-.39-5.99-.57-8.99-.19-3.2-5.19-3.22-5,0Z"/>
    </g>
  </g>
  <path class="cls-2" d="M291.48,230.96v240.6h-29.34v-41.35c-12.47,15.77-26.47,27.64-41.99,35.6-15.52,7.96-32.5,11.94-50.92,11.94-32.74,0-60.7-12.35-83.88-37.04-23.18-24.69-34.76-54.73-34.76-90.12s11.69-64.28,35.08-88.9c23.39-24.62,51.53-36.93,84.41-36.93,18.99,0,36.18,4.2,51.56,12.61,15.38,8.4,28.88,21.01,40.5,37.82v-44.23h29.34ZM170.04,256.34c-17.13,0-32.94,4.21-47.43,12.62-14.49,8.43-26.02,20.24-34.59,35.47-8.56,15.22-12.84,31.33-12.84,48.31s4.31,32.94,12.95,48.31c8.64,15.37,20.24,27.34,34.81,35.91,14.56,8.56,30.19,12.84,46.88,12.84s32.79-4.25,47.87-12.73c15.08-8.5,26.67-19.99,34.81-34.48,8.12-14.49,12.18-30.81,12.18-48.97,0-27.66-9.11-50.8-27.34-69.39-18.22-18.59-40.66-27.89-67.3-27.89ZM730.76,394.95l25.94,13.63c-8.51,16.71-18.34,30.19-29.49,40.45-11.15,10.26-23.69,18.06-37.63,23.41-13.93,5.35-29.71,8.02-47.31,8.02-39.02,0-69.52-12.79-91.53-38.36-22-25.57-33-54.48-33-86.72,0-30.34,9.32-57.38,27.95-81.12,23.61-30.19,55.22-45.29,94.83-45.29s73.34,15.46,97.69,46.39c17.31,21.84,26.11,49.1,26.41,81.78h-215.22c.59,27.78,9.46,50.55,26.63,68.32,17.17,17.76,38.37,26.65,63.61,26.65,12.17,0,24.03-2.12,35.54-6.35,11.52-4.23,21.31-9.86,29.38-16.86,8.08-7.01,16.81-18.32,26.2-33.95ZM730.76,330.73c-4.1-16.41-10.08-29.53-17.94-39.35-9.21-11.52-21.9-20.42-38.08-26.69-8.35-3.24-17.19-5.21-26.12-5.8-26.78-1.79-49.5,5.67-68.18,22.38-12.33,10.99-21.65,27.48-27.96,49.46h178.29ZM524.93,283.16l-24.4,15.17c-21.08-27.99-49.85-41.99-86.29-41.99-29.14,0-53.32,9.37-72.57,28.11-19.24,18.73-28.87,41.49-28.87,68.29,0,17.42,4.42,33.82,13.28,49.19,8.86,15.37,21.01,27.3,36.46,35.8,15.44,8.48,32.75,12.73,51.93,12.73,35.13,0,63.83-14,86.07-41.99l24.4,16.05c-11.43,17.22-26.78,30.58-46.06,40.06-19.27,9.49-41.22,14.23-65.84,14.23-37.81,0-69.17-12.02-94.09-36.05-24.91-24.04-37.37-53.27-37.37-87.71,0-23.16,5.83-44.66,17.48-64.52,11.65-19.86,27.66-35.36,48.03-46.5,20.37-11.14,43.16-16.71,68.37-16.71,15.83,0,31.11,2.42,45.84,7.25,14.73,4.84,27.22,11.14,37.48,18.91,10.26,7.77,18.98,17.66,26.16,29.68Z"/>
</svg>